<svg widht="60" height="60" xmlns="http://www.w3.org/2000/svg" viewBox="0 0 384.97 384.97"><path fill="tomato" d="M192.485 384.97c106.3 0 192.485-86.185 192.485-192.485C384.97 86.173 298.785 0 192.485 0 86.173 0 0 86.173 0 192.485c0 106.3 86.173 192.485 192.485 192.485zm0-361.282c92.874 0 168.424 75.935 168.424 168.797 0 92.874-75.55 168.424-168.424 168.424S24.061 285.359 24.061 192.485 99.611 23.688 192.485 23.688z"/><path fill="tomato" d="M275.999 228.576c10.671.289 16.602-12.872 8.926-20.476l-84.2-82.997c-4.644-4.596-12.548-4.596-17.191 0L99.43 208.016c-6.22 5.931-3.188 20.56 8.842 20.56h167.727zm-83.538-77.993l54.846 54.064H137.615l54.846-54.064z"/></svg>